<svg xmlns="http://www.w3.org/2000/svg" viewBox="0 0 101.05 22.72"><defs><style>.cls-1{fill:#00a0e9;}</style></defs><g id="Layer_2" data-name="Layer 2"><g id="Layer_1-2" data-name="Layer 1"><polygon class="cls-1" points="12.05 22.69 0 22.69 0 0 12.06 0 12.06 2.52 3.58 2.52 3.58 9.96 11.38 9.96 11.38 12.48 3.58 12.48 3.58 20.17 12.05 20.17 12.05 22.69"/><polygon class="cls-1" points="81.24 22.69 69.07 22.69 69.07 0 81.25 0 81.25 2.52 72.65 2.52 72.65 9.96 80.45 9.96 80.45 12.48 72.65 12.48 72.65 20.17 81.24 20.17 81.24 22.69"/><rect class="cls-1" x="36.03" width="3.58" height="22.69"/><rect class="cls-1" x="60.51" width="3.58" height="22.69"/><polygon class="cls-1" points="56.67 2.52 48.2 2.52 48.2 9.96 55.97 9.96 55.97 12.48 48.2 12.48 48.2 22.69 44.59 22.69 44.59 0 56.67 0 56.67 2.52"/><path class="cls-1" d="M31.34,4.53S31.48-.12,25.89,0H16.94V22.69l9,0c5.59.11,5.45-4.57,5.45-4.57ZM27.83,17.29s-.08,2.82-2.75,2.91l-4.49,0V2.52h4.49a2.86,2.86,0,0,1,2.75,2.82Z"/><path class="cls-1" d="M85.93,0h8.16s6.94-.23,7,6.2c0,5.2-5.68,5.68-5.68,5.68l5.51,10.84H97.3l-6-11.88s-.43-.69.31-.71h2.65s3.38-.05,3.48-4A3.35,3.35,0,0,0,94.3,2.41H89.56V22.69H85.93Z"/></g></g></svg>