<?xml version="1.0" encoding="UTF-8"?>
<!DOCTYPE svg PUBLIC "-//W3C//DTD SVG 1.1//EN" "http://www.w3.org/Graphics/SVG/1.1/DTD/svg11.dtd">
<svg xmlns="http://www.w3.org/2000/svg" version="1.1" width="497px" height="749px" style="shape-rendering:geometricPrecision; text-rendering:geometricPrecision; image-rendering:optimizeQuality; fill-rule:evenodd; clip-rule:evenodd" xmlns:xlink="http://www.w3.org/1999/xlink">
<g><path style="opacity:1" fill="transparent" d="M -0.5,-0.5 C 165.167,-0.5 330.833,-0.5 496.5,-0.5C 496.5,249.167 496.5,498.833 496.5,748.5C 330.833,748.5 165.167,748.5 -0.5,748.5C -0.5,498.833 -0.5,249.167 -0.5,-0.5 Z"/></g>
<g><path style="opacity:1" fill="black" d="M 250.5,9.5 C 283.537,7.42424 305.037,22.0909 315,53.5C 317.214,62.9267 316.881,72.2601 314,81.5C 230.606,254.622 146.939,427.622 63,600.5C 49.6467,613.069 36.98,612.402 25,598.5C 2.90637,542.273 1.90637,485.606 22,428.5C 84.7276,298.045 147.728,167.711 211,37.5C 220.492,22.8209 233.658,13.4876 250.5,9.5 Z"/></g>
<g><path style="opacity:1" fill="black" d="M 333.5,255.5 C 368.092,251.967 390.592,266.634 401,299.5C 402.592,311.55 401.259,323.217 397,334.5C 336.667,458.833 276.333,583.167 216,707.5C 198.759,730.442 176.259,737.942 148.5,730C 118.942,715.379 107.775,691.879 115,659.5C 175.455,533.256 236.455,407.256 298,281.5C 306.618,268.373 318.452,259.707 333.5,255.5 Z"/></g>
<g><path style="opacity:1" fill="black" d="M 419.5,500.5 C 456.328,496.862 479.161,512.862 488,548.5C 488.941,559.244 487.275,569.577 483,579.5C 473.178,600.477 462.845,621.143 452,641.5C 420.168,689.173 377.001,722.007 322.5,740C 310.359,742.013 301.526,737.513 296,726.5C 294.053,720.181 294.053,713.848 296,707.5C 325.59,647.32 354.923,586.987 384,526.5C 392.618,513.373 404.452,504.707 419.5,500.5 Z"/></g>
</svg>
