<svg xmlns="http://www.w3.org/2000/svg" viewBox="0 0 272 61.14"><defs><style>.cls-1{fill:#67696b;}</style></defs><g id="Layer_2" data-name="Layer 2"><g id="Layer_1-2" data-name="Layer 1"><g id="Artwork_2" data-name="Artwork 2"><polygon class="cls-1" points="0 0.01 0 61.07 32.43 61.07 32.43 54.29 9.63 54.29 9.63 33.6 30.62 33.6 30.62 26.81 9.63 26.81 9.63 6.79 32.45 6.79 32.45 0.01 0 0.01"/><polygon class="cls-1" points="185.91 0.01 185.91 61.07 218.68 61.07 218.68 54.29 195.55 54.29 195.55 33.6 216.55 33.6 216.55 26.81 195.55 26.81 195.55 6.79 218.68 6.79 218.68 0.01 185.91 0.01"/><rect class="cls-1" x="96.97" y="0.01" width="9.63" height="61.07"/><rect class="cls-1" x="162.87" y="0.01" width="9.63" height="61.07"/><polygon class="cls-1" points="120.01 0.01 120.01 61.07 129.73 61.07 129.73 33.6 150.66 33.6 150.66 26.81 129.73 26.81 129.73 6.79 152.53 6.79 152.53 0.01 120.01 0.01"/><path class="cls-1" d="M84.35,12.19S84.74-.32,69.69,0H45.59V61.07l24.1,0c15,.31,14.66-12.29,14.66-12.29ZM74.91,46.53s-.21,7.6-7.39,7.84l-12.1-.06V6.79h12.1c7.18.23,7.39,7.6,7.39,7.6Z"/><path class="cls-1" d="M231.28,0h22S271.92-.62,272,16.69c.07,14-15.31,15.29-15.31,15.29l14.83,29.16H261.9L245.67,29.19s-1.16-1.88.83-1.91h7.12s9.1-.14,9.39-10.73c.26-10.24-9.2-10.07-9.2-10.07H241.07V61.07h-9.79Z"/></g></g></g></svg>