<svg xmlns="http://www.w3.org/2000/svg" viewBox="0 0 242.27 233.38"><defs><style>.cls-1{fill:#5f2124;}.cls-2{fill:#a81331;}</style></defs><g id="Capa_2" data-name="Capa 2"><g id="Layer_1" data-name="Layer 1"><path d="M32.67,201.06c-1-1-3.72-3.42-8.26-7.26q-7.28-6.23-8.73-8.11a4.93,4.93,0,0,1-1.06-3,3.69,3.69,0,0,1,1.49-2.85,5.67,5.67,0,0,1,3.83-1.27q4.81,0,9.45,6.53l8.82-7.86q-4.93-5.79-9.17-8a19.16,19.16,0,0,0-8.92-2.19,17.06,17.06,0,0,0-12.23,4.7,15,15,0,0,0-5,11.27,16.67,16.67,0,0,0,3,9.12q3,4.57,13.2,13a45.58,45.58,0,0,1,6.94,6.57A7.22,7.22,0,0,1,27.62,216a5.38,5.38,0,0,1-2.08,4.17,7.61,7.61,0,0,1-5.15,1.8c-4.34,0-8.07-5-11.07-10.61L0,219.69q3.53,7.08,8.49,10.39a20.48,20.48,0,0,0,11.63,3.3q8.56,0,13.87-5.06a17,17,0,0,0,5.32-12.84,17.72,17.72,0,0,0-1.51-7.36A25.17,25.17,0,0,0,32.67,201.06Zm26.67-33.19h-.1l-11.5,11.5v5.72h-6v10.08h6v36.62h11.6V195.17h6.89V185.09H59.34Zm44.17,22.37a21.18,21.18,0,0,0-6.75-4.77A19.31,19.31,0,0,0,89,183.88a20.05,20.05,0,0,0-15.36,6.92q-6.33,6.9-6.33,17.73A24.63,24.63,0,0,0,73.8,226a20.51,20.51,0,0,0,15.49,7,18.89,18.89,0,0,0,7.41-1.43,22.77,22.77,0,0,0,6.81-4.7v4.93h11.61v-46.7H103.51Zm-3.09,28.18a11.89,11.89,0,0,1-9.06,3.84,11.71,11.71,0,0,1-8.92-3.9,14.11,14.11,0,0,1-3.62-10,14,14,0,0,1,3.56-9.86,11.67,11.67,0,0,1,8.94-3.84,12,12,0,0,1,9.1,3.78,13.72,13.72,0,0,1,3.6,9.87A14.13,14.13,0,0,1,100.42,218.42Zm56.51-40v11.82a21.4,21.4,0,0,0-6.75-4.77,19.34,19.34,0,0,0-7.81-1.59A20.07,20.07,0,0,0,127,190.8q-6.31,6.9-6.32,17.73A24.66,24.66,0,0,0,127.21,226a20.53,20.53,0,0,0,15.5,7,18.89,18.89,0,0,0,7.41-1.43,22.89,22.89,0,0,0,6.81-4.7v4.93h11.6V167.06h-.23Zm-3.09,40a11.89,11.89,0,0,1-9.06,3.84,11.69,11.69,0,0,1-8.92-3.9,14.07,14.07,0,0,1-3.62-10,13.92,13.92,0,0,1,3.56-9.86,11.66,11.66,0,0,1,8.93-3.84,12,12,0,0,1,9.11,3.78,13.72,13.72,0,0,1,3.6,9.87A14.13,14.13,0,0,1,153.84,218.42Zm23.1,13.37h11.6v-46.7h-11.6ZM239,196.16a23.68,23.68,0,0,0-9-9,24.33,24.33,0,0,0-12.3-3.31,23.09,23.09,0,0,0-16,6.36,24.92,24.92,0,0,0-.91,35.61,22.93,22.93,0,0,0,17,7.14,24.28,24.28,0,0,0,12.37-3.24,23.55,23.55,0,0,0,8.86-9,24.69,24.69,0,0,0,3.25-12.36A24.25,24.25,0,0,0,239,196.16ZM227,218.27a12,12,0,0,1-9.07,3.82,11.82,11.82,0,0,1-9-3.78,13.82,13.82,0,0,1-3.56-9.87,13.55,13.55,0,0,1,3.6-9.72,12.72,12.72,0,0,1,18.09-.05,15.17,15.17,0,0,1-.06,19.6Z"/><path class="cls-1" d="M68.91,119.61a76.43,76.43,0,0,0,5.79,6.54L114.64,86.2ZM167.7,33.14,127.76,73.08l45.73-33.4A74.94,74.94,0,0,0,167.7,33.14Z"/><path class="cls-2" d="M175.12,41.81c-.53-.72-1.08-1.43-1.63-2.13l-28.3,20.67c.57.69,1.12,1.39,1.65,2.11A38.87,38.87,0,0,1,88,112.88L63.2,137.64A73.89,73.89,0,0,0,175.12,41.81ZM68.91,119.61l28.3-20.68c-.57-.68-1.12-1.38-1.65-2.11A38.87,38.87,0,0,1,154.44,46.4L179.2,21.64A73.89,73.89,0,0,0,67.28,117.48C67.81,118.2,68.36,118.9,68.91,119.61Z"/></g></g></svg>