<svg xmlns="http://www.w3.org/2000/svg" viewBox="0 0 250 75.59"><defs><style>.cls-1{fill:#1a1a1a;}.cls-2{fill:#5f2124;}.cls-3{fill:#a81331;}</style></defs><g id="Layer_2" data-name="Layer 2"><g id="Layer_1-2" data-name="Layer 1"><path class="cls-1" d="M101.3,38.78q-1-1.06-5.86-5.14a57.65,57.65,0,0,1-6.2-5.76,3.5,3.5,0,0,1-.75-2.13,2.62,2.62,0,0,1,1.06-2,4.08,4.08,0,0,1,2.71-.89q3.42,0,6.71,4.62l6.25-5.57a23,23,0,0,0-6.5-5.66,13.53,13.53,0,0,0-6.33-1.56A12.16,12.16,0,0,0,83.71,18a10.64,10.64,0,0,0-3.51,8,11.8,11.8,0,0,0,2.11,6.48q2.11,3.24,9.36,9.21a32.31,32.31,0,0,1,4.93,4.66,5.15,5.15,0,0,1,1.12,3,3.84,3.84,0,0,1-1.48,3,5.43,5.43,0,0,1-3.66,1.28c-3.08,0-5.72-3.57-7.85-7.53L78.12,52a18.41,18.41,0,0,0,6,7.37,14.48,14.48,0,0,0,8.25,2.35,13.65,13.65,0,0,0,9.84-3.6A12,12,0,0,0,106,49a12.74,12.74,0,0,0-1.07-5.23A18.08,18.08,0,0,0,101.3,38.78Zm18.92-23.54h-.08L112,23.4v4.05h-4.22v7.16H112v26h8.23v-26h4.88V27.45h-4.88Zm31.34,15.87a15.26,15.26,0,0,0-4.79-3.38,13.79,13.79,0,0,0-5.54-1.13,14.26,14.26,0,0,0-10.91,4.91q-4.48,4.9-4.48,12.57a17.46,17.46,0,0,0,4.63,12.38,14.56,14.56,0,0,0,11,5,13.39,13.39,0,0,0,5.25-1,16.18,16.18,0,0,0,4.84-3.33v3.5h8.23V27.45h-8.23Zm-2.2,20a8.42,8.42,0,0,1-6.43,2.73,8.27,8.27,0,0,1-6.32-2.77A10,10,0,0,1,134,44a9.9,9.9,0,0,1,2.52-7,8.3,8.3,0,0,1,6.34-2.72A8.52,8.52,0,0,1,149.36,37a9.69,9.69,0,0,1,2.56,7A10,10,0,0,1,149.36,51.1Zm40.09-28.37v8.38a15,15,0,0,0-4.79-3.38,13.72,13.72,0,0,0-5.54-1.13,14.24,14.24,0,0,0-10.9,4.91,17.91,17.91,0,0,0-4.49,12.57,17.47,17.47,0,0,0,4.64,12.38,14.54,14.54,0,0,0,11,5,13.44,13.44,0,0,0,5.26-1,16.15,16.15,0,0,0,4.83-3.33v3.5h8.23V14.66h-.16ZM187.26,51.1a8.43,8.43,0,0,1-6.43,2.73,8.29,8.29,0,0,1-6.33-2.77A10,10,0,0,1,171.93,44a9.91,9.91,0,0,1,2.53-7,8.28,8.28,0,0,1,6.34-2.72A8.53,8.53,0,0,1,187.26,37a9.73,9.73,0,0,1,2.55,7A10,10,0,0,1,187.26,51.1Zm16.39,9.49h8.23V27.45h-8.23Zm44.06-25.28A16.87,16.87,0,0,0,241.33,29a17.17,17.17,0,0,0-8.73-2.35,16.38,16.38,0,0,0-11.36,4.51,16.84,16.84,0,0,0-5.64,12.94,16.89,16.89,0,0,0,5,12.32,16.27,16.27,0,0,0,12,5.07,17.18,17.18,0,0,0,8.78-2.3,16.6,16.6,0,0,0,6.28-6.38A17.5,17.5,0,0,0,250,44,17.23,17.23,0,0,0,247.71,35.31ZM239.14,51a8.52,8.52,0,0,1-6.43,2.71A8.42,8.42,0,0,1,226.32,51a9.82,9.82,0,0,1-2.52-7,9.64,9.64,0,0,1,2.55-6.9,9,9,0,0,1,12.84,0A9.69,9.69,0,0,1,241.71,44,9.74,9.74,0,0,1,239.14,51Z"/><path class="cls-2" d="M7.53,56.76a33.67,33.67,0,0,0,2.74,3.11l19-19Zm46.88-41-19,19L57.16,18.83A33.82,33.82,0,0,0,54.41,15.73Z"/><path class="cls-3" d="M57.93,19.84c-.25-.34-.51-.68-.77-1L43.73,28.64c.27.33.53.66.78,1A18.45,18.45,0,0,1,16.57,53.57L4.82,65.32A35.07,35.07,0,0,0,57.93,19.84ZM7.53,56.76,21,47c-.28-.32-.54-.66-.79-1A18.45,18.45,0,0,1,48.12,22L59.87,10.27A35.07,35.07,0,0,0,6.75,55.75C7,56.09,7.26,56.43,7.53,56.76Z"/></g></g></svg>