<svg xmlns="http://www.w3.org/2000/svg" viewBox="0 0 64 64"><defs><style>.cls-1{fill:none;}.cls-2{fill:#00a0e9;}</style></defs><g id="Layer_2" data-name="Layer 2"><g id="Layer_1-2" data-name="Layer 1"><rect class="cls-1" width="64" height="64"/><g id="Artwork_3" data-name="Artwork 3"><path class="cls-2" d="M13.27,50.41a1.93,1.93,0,0,0,3.48.14L37.28,8.15a4.68,4.68,0,0,0-8.42-4.07l-15.51,32h0a20,20,0,0,0-.1,14.3"/><path class="cls-2" d="M49.37,42.94a4.69,4.69,0,0,0-6.25,2.17L36,59.85a2,2,0,0,0-.15.77,1.92,1.92,0,0,0,1.93,1.93,2.25,2.25,0,0,0,.52-.07,20.06,20.06,0,0,0,11.11-8.92h0l2.13-4.39a4.69,4.69,0,0,0-2.17-6.24"/><path class="cls-2" d="M42.19,22.53a4.69,4.69,0,0,0-6.25,2.17L21.16,55.23a4.68,4.68,0,0,0,2.17,6.24h0a4.69,4.69,0,0,0,6.24-2.17L44.36,28.77a4.69,4.69,0,0,0-2.17-6.24"/></g></g></g></svg>