<?xml version="1.0" standalone="no"?>
<!DOCTYPE svg PUBLIC "-//W3C//DTD SVG 20010904//EN"
 "http://www.w3.org/TR/2001/REC-SVG-20010904/DTD/svg10.dtd">
<svg version="1.0" xmlns="http://www.w3.org/2000/svg"
 width="700.000000pt" height="700.000000pt" viewBox="0 0 700.000000 700.000000"
 preserveAspectRatio="xMidYMid meet">
<metadata>
Created by potrace 1.14, written by Peter Selinger 2001-2017
</metadata>
<g transform="translate(0.000000,700.000000) scale(0.100000,-0.100000)"
fill="#000000" stroke="none">
<path d="M0 3500 l0 -3500 3500 0 3500 0 0 3500 0 3500 -3500 0 -3500 0 0
-3500z m5070 2625 l0 -325 -1105 0 -1105 0 0 -970 0 -970 1015 0 1015 0 0
-330 0 -330 -1015 0 -1015 0 0 -1000 0 -1000 1105 0 1105 0 0 -325 0 -325
-1570 0 -1570 0 0 2950 0 2950 1570 0 1570 0 0 -325z"/>
</g>
</svg>
