<?xml version="1.0" encoding="UTF-8"?>
<svg id="Layer_2" data-name="Layer 2" xmlns="http://www.w3.org/2000/svg" viewBox="0 0 91 52">
  <defs>
    <style>
      .cls-1 {
        stroke-linecap: round;
        stroke-linejoin: round;
      }

      .cls-1, .cls-2, .cls-3 {
        fill: none;
      }

      .cls-1, .cls-3 {
        stroke: #000;
      }

      .cls-2 {
        stroke-width: 0px;
      }

      .cls-3 {
        stroke-miterlimit: 10;
      }
    </style>
  </defs>
  <g id="Capa_1" data-name="Capa 1">
    <g>
      <g>
        <path class="cls-1" d="m45.5,43.26c-9.52,0-17.26-7.74-17.26-17.25s7.74-17.26,17.26-17.26,17.26,7.74,17.26,17.26-7.74,17.25-17.26,17.25m0-31.36c-7.78,0-14.1,6.33-14.1,14.11s6.33,14.1,14.1,14.1,14.11-6.33,14.11-14.1-6.33-14.11-14.11-14.11"/>
        <g>
          <path class="cls-3" d="m40.85,32.71c-1.03,0-1.84-.81-1.84-1.84v-7.87l-.32.08c-.19.07-.46.09-.6.09-.91,0-1.68-.76-1.68-1.66,0-.76.51-1.42,1.26-1.64l1.74-.51c.56-.15.99-.25,1.41-.25,1.07,0,1.87.81,1.87,1.84v9.92c0,1.03-.81,1.84-1.84,1.84Z"/>
          <path class="cls-3" d="m46.02,32.6c-1.17,0-1.96-.72-1.96-1.78,0-.69.31-1.29.9-1.75l3.49-2.86c1.55-1.26,1.95-1.79,1.95-2.57,0-.73-.39-1.1-1.15-1.1-.6,0-1.03.24-1.64.91-.37.37-.8.55-1.29.55-.95,0-1.73-.78-1.73-1.73,0-.44.15-.83.44-1.17,1.18-1.37,2.54-1.99,4.39-1.99,2.83,0,4.74,1.73,4.74,4.3,0,2.39-1.3,3.53-3.43,5.2l-.85.65h2.83c.93,0,1.68.75,1.68,1.68s-.75,1.66-1.68,1.66h-6.69Z"/>
        </g>
      </g>
      <rect class="cls-2" width="91" height="52"/>
    </g>
  </g>
</svg>