<svg xmlns="http://www.w3.org/2000/svg" viewBox="0 0 91 52"><defs><style>.cls-1,.cls-2{fill:none;}.cls-1{stroke:#000;stroke-linecap:round;stroke-linejoin:round;}</style></defs><g id="Layer_2" data-name="Layer 2"><g id="Capa_1" data-name="Capa 1"><path class="cls-1" d="M45.5,43.26A17.26,17.26,0,1,1,62.76,26,17.28,17.28,0,0,1,45.5,43.26m0-31.36A14.11,14.11,0,1,0,59.61,26,14.11,14.11,0,0,0,45.5,11.9"/><path class="cls-1" d="M40.84,19.13a5.12,5.12,0,0,0-1.42.25l-1.73.5a1.79,1.79,0,0,0-1.31,1.72,1.76,1.76,0,0,0,1.75,1.73,2.65,2.65,0,0,0,.62-.09l.22,0v7.7a1.91,1.91,0,1,0,3.82,0V21a1.92,1.92,0,0,0-1.95-1.91"/><path class="cls-1" d="M53.1,25.72a3.44,3.44,0,0,0,1.1-2.66c0-2.28-2.05-3.94-4.88-3.94s-4.88,1.66-4.88,4a3.38,3.38,0,0,0,1.08,2.6A3.44,3.44,0,0,0,44,28.76c0,2.42,2.18,4.12,5.3,4.12s5.3-1.69,5.3-4.22a3.37,3.37,0,0,0-1.52-2.94m-3.78,1.87c.71,0,1.53.25,1.53,1,0,.56-.61.94-1.53.94s-1.53-.39-1.53-1,.82-.93,1.53-.93m0-3.29c-.71,0-1.17-.36-1.17-1s.48-.83,1.17-.83,1.16.44,1.16.89-.45.9-1.16.9"/><rect class="cls-2" width="91" height="52"/></g></g></svg>