<svg xmlns="http://www.w3.org/2000/svg" viewBox="0 0 25 20.92"><defs><style>.cls-1{fill:#393939;}</style></defs><g id="Layer_2" data-name="Layer 2"><g id="Layer_1-2" data-name="Layer 1"><path class="cls-1" d="M12.5,0a15.22,15.22,0,0,0-10,3.33A7.25,7.25,0,0,0,.15,7.09,5.47,5.47,0,0,0,0,8.37C0,11,1.75,13.27,4.51,14.8a.24.24,0,0,1,.11.25A7.65,7.65,0,0,1,1.9,19a.09.09,0,0,0,.07.16A13.66,13.66,0,0,0,8,16.3a.28.28,0,0,1,.25-.06h0a.16.16,0,0,0,.19-.2A4.4,4.4,0,0,1,8.29,15a5,5,0,0,1,2.47-4.13A9.85,9.85,0,0,1,16.19,9.3a9.87,9.87,0,0,1,5.43,1.52,6.35,6.35,0,0,1,1.57,1.47.22.22,0,0,0,.35,0A6.29,6.29,0,0,0,25,8.37C25,3.75,19.4,0,12.5,0ZM23,15a3,3,0,0,0-.09-.74,4,4,0,0,0-1.18-1.93,8.25,8.25,0,0,0-5.57-1.92c-3.78,0-6.84,2.05-6.84,4.59s3.06,4.58,6.84,4.58a9.67,9.67,0,0,0,2.19-.24.32.32,0,0,1,.27.07,7.43,7.43,0,0,0,3.17,1.56c.11,0,.18-.12.09-.18a4.36,4.36,0,0,1-1.42-1.94.34.34,0,0,1,.14-.37A4.18,4.18,0,0,0,23,15Z"/></g></g></svg>