<svg xmlns="http://www.w3.org/2000/svg" viewBox="0 0 91 52"><defs><style>.cls-1,.cls-2{fill:none;}.cls-1{stroke:#000;stroke-linecap:round;stroke-linejoin:round;}</style></defs><g id="Layer_2" data-name="Layer 2"><g id="Capa_1" data-name="Capa 1"><rect class="cls-1" x="22.63" y="21.49" width="32.73" height="20.77"/><polyline class="cls-1" points="35.64 16.57 35.64 9.74 68.36 9.74 68.36 30.51 60.84 30.51"/><rect class="cls-1" x="38.47" y="12.89" width="27.06" height="4.41"/><line class="cls-1" x1="25.78" y1="34.08" x2="30.5" y2="34.08"/><line class="cls-1" x1="25.78" y1="36.91" x2="28.61" y2="36.91"/><line class="cls-1" x1="31.13" y1="36.91" x2="33.96" y2="36.91"/><line class="cls-1" x1="36.48" y1="36.91" x2="39.31" y2="36.91"/><line class="cls-1" x1="41.83" y1="36.91" x2="44.66" y2="36.91"/><line class="cls-1" x1="33.33" y1="34.08" x2="41.51" y2="34.08"/><path class="cls-1" d="M44.43,25.58a10.19,10.19,0,0,0,0,5.22h7.15a10.19,10.19,0,0,0,0-5.22Z"/><line class="cls-1" x1="46.65" y1="25.58" x2="46.65" y2="30.8"/><line class="cls-1" x1="49.36" y1="25.58" x2="49.36" y2="30.8"/><line class="cls-1" x1="44.16" y1="28.19" x2="46.58" y2="28.19"/><line class="cls-1" x1="49.38" y1="28.19" x2="51.89" y2="28.19"/><rect class="cls-2" width="91" height="52"/></g></g></svg>