<svg xmlns="http://www.w3.org/2000/svg" viewBox="0 0 91 52"><defs><style>.cls-1,.cls-2{fill:none;}.cls-1{stroke:#000;stroke-linecap:round;stroke-linejoin:round;}</style></defs><g id="Layer_2" data-name="Layer 2"><g id="Capa_1" data-name="Capa 1"><polyline class="cls-1" points="72.52 21.03 72.52 40.52 18.58 40.52 18.58 11.85 53.47 11.85"/><circle class="cls-1" cx="45.55" cy="26" r="7.92"/><circle cx="28.01" cy="26.19" r="1.51"/><circle cx="62.34" cy="26.19" r="1.51"/><line class="cls-1" x1="58.57" y1="11.85" x2="78.3" y2="11.85"/><path d="M71.46,16.65a.49.49,0,0,1,.16-.69l6.45-4.11L71.62,7.74a.49.49,0,0,1-.16-.69.5.5,0,0,1,.69-.15l7.12,4.53a.5.5,0,0,1,0,.84l-7.12,4.54a.48.48,0,0,1-.26.07A.51.51,0,0,1,71.46,16.65Z"/><rect class="cls-2" width="91" height="52"/></g></g></svg>